<svg width="60" height="61" viewBox="0 0 60 61" fill="none" xmlns="http://www.w3.org/2000/svg">
<path d="M59.392 48.9028L55.3547 43.395V29.8599C55.3547 27.7505 54.8971 25.7583 53.9819 23.8833C53.0668 21.9692 51.8018 20.2407 50.1868 18.6978C48.5719 17.1548 46.6339 15.8169 44.373 14.6841C42.1121 13.5513 39.6628 12.7114 37.025 12.1646V5.36768C37.025 3.96143 36.3387 2.76025 34.966 1.76416C33.5933 0.768066 31.9379 0.27002 30 0.27002C28.0621 0.27002 26.4067 0.768066 25.034 1.76416C23.6613 2.76025 22.975 3.96143 22.975 5.36768V12.1646C20.3372 12.7114 17.8879 13.5513 15.627 14.6841C13.3661 15.8169 11.4281 17.1548 9.81317 18.6978C8.19823 20.2407 6.93319 21.9692 6.01805 23.8833C5.10291 25.7583 4.64535 27.7505 4.64535 29.8599V43.395L0.60798 48.9028C0.177327 49.4497 -0.0245408 50.0161 0.00237492 50.6021C0.0292907 51.188 0.258075 51.7349 0.688727 52.2427C1.11938 52.7505 1.68461 53.1509 2.38442 53.4438C3.08423 53.7368 3.86479 53.8833 4.72609 53.8833H20.7141C20.8217 55.6411 21.7772 57.145 23.5806 58.395C25.3839 59.645 27.5237 60.27 30 60.27C32.4762 60.27 34.6161 59.645 36.4194 58.395C38.2228 57.145 39.1783 55.6411 39.2859 53.8833H55.2739C56.1352 53.8833 56.9158 53.7368 57.6156 53.4438C58.3154 53.1509 58.8806 52.7505 59.3113 52.2427C59.7419 51.7349 59.9707 51.188 59.9976 50.6021C60.0245 50.0161 59.8227 49.4497 59.392 48.9028ZM26.6894 5.36768C26.6894 4.70361 27.0124 4.13721 27.6583 3.66846C28.3043 3.19971 29.0849 2.96533 30 2.96533C30.9151 2.96533 31.6957 3.19971 32.3417 3.66846C32.9877 4.13721 33.3106 4.70361 33.3106 5.36768V11.5786C32.7723 11.5396 32.2206 11.5005 31.6553 11.4614C31.0901 11.4224 30.5383 11.4028 30 11.4028C29.4617 11.4028 28.9099 11.4224 28.3447 11.4614C27.7794 11.5005 27.2277 11.5396 26.6894 11.5786V5.36768ZM8.35972 29.8599C8.35972 27.6724 8.92495 25.6216 10.0554 23.7075C11.1859 21.8325 12.7335 20.1821 14.6984 18.7563C16.6632 17.3306 18.9645 16.2075 21.6023 15.3872C24.24 14.5278 27.0393 14.0981 30 14.0981C32.9607 14.0981 35.76 14.5278 38.3977 15.3872C41.0355 16.2075 43.3368 17.3306 45.3016 18.7563C47.2665 20.1821 48.8141 21.8325 49.9446 23.7075C51.075 25.6216 51.6403 27.6724 51.6403 29.8599V42.2817H8.35972V29.8599ZM30 57.5747C28.5465 57.5747 27.295 57.2134 26.2453 56.4907C25.1955 55.7681 24.5899 54.8989 24.4284 53.8833H35.5716C35.4101 54.8989 34.8045 55.7681 33.7547 56.4907C32.705 57.2134 31.4535 57.5747 30 57.5747ZM56.0814 50.8364C56.0814 50.8755 56.0141 50.9438 55.8795 51.0415C55.7449 51.1392 55.5431 51.188 55.2739 51.188H4.72609C4.45693 51.188 4.25507 51.1392 4.12049 51.0415C3.98591 50.9438 3.91862 50.8755 3.91862 50.8364C3.86479 50.7974 3.81096 50.7192 3.75712 50.6021C3.70329 50.4849 3.73021 50.3481 3.83787 50.1919L7.633 44.9771H52.367L56.1621 50.1919C56.2698 50.3481 56.2967 50.4849 56.2429 50.6021C56.189 50.7192 56.1352 50.7974 56.0814 50.8364ZM30 17.731C27.6852 17.731 25.532 18.0435 23.5402 18.6685C21.4946 19.3325 19.7182 20.2114 18.2109 21.3052C16.7036 22.3989 15.5193 23.6685 14.658 25.1138C13.7429 26.5981 13.2853 28.1802 13.2853 29.8599C13.2853 30.2114 13.4737 30.5239 13.8505 30.7974C14.2274 31.0708 14.658 31.2075 15.1425 31.2075C15.6808 31.2075 16.1249 31.0708 16.4748 30.7974C16.8247 30.5239 16.9997 30.2114 16.9997 29.8599C16.9997 27.2427 18.2782 25.0161 20.8352 23.1802C23.3922 21.3442 26.4471 20.4263 30 20.4263C30.5383 20.4263 30.9824 20.2993 31.3323 20.0454C31.6822 19.7915 31.8572 19.4692 31.8572 19.0786C31.8572 18.7271 31.6822 18.4146 31.3323 18.1411C30.9824 17.8677 30.5383 17.731 30 17.731Z" fill="white"/>
</svg>
